<svg xmlns="http://www.w3.org/2000/svg" viewBox="0 0 120 120" fill="none">
  <!-- Hexagon background -->
  <polygon points="60,4 110,32 110,88 60,116 10,88 10,32" fill="#5B4FCF"/>
  <polygon points="60,10 104,35 104,85 60,110 16,85 16,35" fill="none" stroke="white" stroke-width="5"/>
  <!-- Crown shape -->
  <!-- Center diamond spike -->
  <polygon points="60,20 65,36 60,32 55,36" fill="white"/>
  <!-- Left spike -->
  <polygon points="30,42 38,58 44,52 48,60" fill="white"/>
  <!-- Right spike -->
  <polygon points="90,42 82,58 76,52 72,60" fill="white"/>
  <!-- Crown body -->
  <path d="M30,42 L38,58 L44,52 L48,60 L55,36 L60,32 L65,36 L72,60 L76,52 L82,58 L90,42 L90,75 L30,75 Z" fill="white"/>
  <!-- Face cutout -->
  <rect x="38" y="60" width="44" height="15" rx="4" fill="#5B4FCF"/>
  <!-- Eyes -->
  <rect x="41" y="63" width="16" height="8" rx="2" fill="white"/>
  <rect x="63" y="63" width="16" height="8" rx="2" fill="white"/>
  <!-- Nose diamond -->
  <polygon points="60,74 55,80 60,83 65,80" fill="white"/>
</svg>
